<?xml version="1.0" encoding="UTF-8" standalone="no"?>
<!-- Created with Inkscape (http://www.inkscape.org/) -->

<svg
   xmlns:dc="http://purl.org/dc/elements/1.1/"
   xmlns:cc="http://creativecommons.org/ns#"
   xmlns:rdf="http://www.w3.org/1999/02/22-rdf-syntax-ns#"
   xmlns:svg="http://www.w3.org/2000/svg"
   xmlns="http://www.w3.org/2000/svg"
   xmlns:sodipodi="http://sodipodi.sourceforge.net/DTD/sodipodi-0.dtd"
   xmlns:inkscape="http://www.inkscape.org/namespaces/inkscape"
   version="1.1"
   id="svg64"
   width="2342"
   height="1120"
   viewBox="0 0 2342 1120"
   sodipodi:docname="logo-fill.svg"
   inkscape:version="0.92.4 (5da689c313, 2019-01-14)">
  <metadata
     id="metadata70">
    <rdf:RDF>
      <cc:Work
         rdf:about="">
        <dc:format>image/svg+xml</dc:format>
        <dc:type
           rdf:resource="http://purl.org/dc/dcmitype/StillImage" />
        <dc:title></dc:title>
      </cc:Work>
    </rdf:RDF>
  </metadata>
  <defs
     id="defs68" />
  <sodipodi:namedview
     pagecolor="#ffffff"
     bordercolor="#666666"
     borderopacity="1"
     objecttolerance="10"
     gridtolerance="10"
     guidetolerance="10"
     inkscape:pageopacity="0"
     inkscape:pageshadow="2"
     inkscape:window-width="2048"
     inkscape:window-height="1127"
     id="namedview66"
     showgrid="false"
     inkscape:zoom="0.25"
     inkscape:cx="623.14351"
     inkscape:cy="870.31172"
     inkscape:window-x="0"
     inkscape:window-y="25"
     inkscape:window-maximized="0"
     inkscape:current-layer="svg64"
     showguides="false" />
  <g
     inkscape:groupmode="layer"
     id="layer1"
     inkscape:label="Layer 1"
     transform="translate(0,-2912)" />
  <path
     style="color:#000000;font-style:normal;font-variant:normal;font-weight:normal;font-stretch:normal;font-size:medium;line-height:normal;font-family:sans-serif;font-variant-ligatures:normal;font-variant-position:normal;font-variant-caps:normal;font-variant-numeric:normal;font-variant-alternates:normal;font-feature-settings:normal;text-indent:0;text-align:start;text-decoration:none;text-decoration-line:none;text-decoration-style:solid;text-decoration-color:#000000;letter-spacing:normal;word-spacing:normal;text-transform:none;writing-mode:lr-tb;direction:ltr;text-orientation:mixed;dominant-baseline:auto;baseline-shift:baseline;text-anchor:start;white-space:normal;shape-padding:0;clip-rule:nonzero;display:inline;overflow:visible;visibility:visible;opacity:1;isolation:auto;mix-blend-mode:normal;color-interpolation:sRGB;color-interpolation-filters:linearRGB;solid-color:#000000;solid-opacity:1;vector-effect:none;fill:#ffffff;fill-opacity:1;fill-rule:nonzero;stroke:none;stroke-width:1px;stroke-linecap:butt;stroke-linejoin:miter;stroke-miterlimit:4;stroke-dasharray:none;stroke-dashoffset:0;stroke-opacity:1;color-rendering:auto;image-rendering:auto;shape-rendering:auto;text-rendering:auto;enable-background:accumulate"
     d="m 1321.3848,5.875 h -0.064 L 694.94386,204.377 c -40.58614,-2.5526 -85.0441,-13.1472 -119.25391,-0.6465 -27.41087,7.7743 -45.03144,21.4518 -60.13086,36.5156 -15.10197,15.0663 -27.70075,31.5041 -45.12695,44.9023 C 428.32619,312.3099 352.1206,344.045 267.92628,377.9961 183.72011,411.952 91.51157,448.138 17.324719,484.2773 l -0.310547,0.1524 0.03125,0.3437 c 0.610539,6.5991 -0.194389,9.8752 -0.441406,15.502 -0.247017,5.6268 0.07737,13.5238 2.957031,29.2402 6.909963,45.2391 38.653017,80.3388 72.673833,109.9121 l 0.0117,0.012 0.0137,0.01 c 84.64133,63.8407 199.64499,106.353 302.55468,152.6036 54.97552,26.2462 99.46918,84.8415 137.70313,178.6425 -0.60066,8.8073 0.46202,10.2826 0.68554,15.3301 0.22519,5.0849 -0.39852,14.0546 -4.45703,38.3301 l -9.01171,37.4942 -19.5625,52.2793 h 208.11914 l 0.0605,-0.016 c 10.1956,-2.5898 19.89216,-6.7898 26.76953,-17.8672 l 0.0137,-0.021 0.01,-0.022 c 33.84814,-68.6494 66.24928,-109.0481 96.81641,-129.4376 30.56713,-20.3894 59.273,-20.8361 86.03125,-9.5644 53.51649,22.5433 99.07378,92.2571 133.91008,143.4746 l 0.1485,0.2168 249.2129,1.295 0.062,-0.016 c 60.5233,-15.2182 116.6774,-74.8317 165.3476,-121.8183 l 0.057,-0.055 0.037,-0.07 c 33.7882,-63.5839 51.253,-148.439 97.0566,-199.6055 v 0 0 c 74.5636,-87.3222 140.6947,-164.8631 292.7637,-224.25 55.9654,-18.2537 101.4099,-11.6507 144.0156,1.9062 l 0.2696,0.086 322.3379,-286.9648 0.041,-0.08 c 6.8203,-13.014 18.7932,-37.5733 4.3789,-71.6426 l -0.1133,-0.2676 -0.2891,-0.035 C 2211.8374,185.8084 2093.099,172.6204 1966.7094,177.9493 h -0.018 -0.018 c -170.1297,19.4512 -322.2271,70.8079 -475.8906,119.7618 h -0.01 -0.012 c -82.7798,30.7169 -163.7448,61.7503 -244.6914,136.1953 l -0.027,0.023 -0.024,0.029 c -41.8253,51.6042 -83.6445,112.6378 -125.4609,182.8261 l -0.1387,0.2344 0.1211,0.2442 c 33.8147,67.8887 67.8518,128.9752 74.2891,194.9531 -6.6591,7.7115 -10.9326,21.4459 -14.4082,37.0137 -3.4081,15.2653 -6.0462,32.1936 -9.2422,46.8437 -40.8394,-73.9477 -89.0849,-124.7542 -127.209,-157.6816 -19.1649,-16.5526 -35.7707,-28.5979 -47.5801,-36.8164 -5.9046,-4.1093 -10.61076,-7.2634 -13.83001,-9.5371 -1.60962,-1.1369 -2.84976,-2.0566 -3.66797,-2.752 -0.4091,-0.3477 -0.71254,-0.6405 -0.89648,-0.8594 -0.18395,-0.2189 -0.20703,-0.3727 -0.20703,-0.2949 v -0.027 l -0.002,-0.025 C 961.20929,529.4757 1011.6345,412.0048 1087.7754,310.8736 1163.9163,209.7425 1265.7894,124.9904 1352.0215,31.9615 l 0.082,-0.088 0.033,-0.1133 c 2.3188,-8.0877 -0.5481,-14.8985 -6.4062,-19.4492 -5.8581,-4.5508 -14.6629,-6.9186 -24.3457,-6.4395 z m 0.1035,1 c 9.4675,-0.4575 18.0339,1.8822 23.6289,6.2285 5.5813,4.3357 8.2385,10.5921 6.0723,18.2852 -86.1504,92.9218 -188.0044,177.6657 -264.2129,278.8867 -76.2372,101.2591 -126.79054,219.0477 -110.17777,377.9121 l -0.002,-0.051 c 0,0.3901 0.19563,0.645 0.4414,0.9375 0.24577,0.2925 0.5827,0.6105 1.01563,0.9785 0.86586,0.7359 2.11705,1.6629 3.73632,2.8067 3.23855,2.2874 7.94092,5.437 13.83782,9.541 11.794,8.2078 28.3658,20.2312 47.4962,36.7539 38.2607,33.0453 86.7491,84.0834 127.6602,158.5586 l 0.6386,1.1621 0.2872,-1.2949 c 3.3298,-14.9705 6.0043,-32.4867 9.496,-48.127 3.4918,-15.6403 7.8352,-29.4023 14.3262,-36.7852 l 0.1426,-0.1621 -0.022,-0.2148 c -6.4152,-66.2391 -40.4962,-127.4016 -74.2851,-195.2207 41.7407,-70.0407 83.4791,-130.9526 125.2109,-182.4453 80.7887,-74.2909 161.559,-105.2561 244.3163,-135.9649 v 0 c 0.01,0 0.012,0 0.018,-0.01 153.6579,-48.9524 305.6691,-100.2711 475.6484,-119.7089 126.1791,-5.3195 244.7565,7.8315 360.0449,21.3847 14.0664,33.5302 2.3903,57.485 -4.4003,70.4473 l -321.7754,286.4629 c -42.6363,-13.5325 -88.2922,-20.109 -144.3614,-1.8184 h -0.014 l -0.012,0.01 c -152.2636,59.4593 -218.6097,137.2121 -293.1757,224.5371 -46.064,51.4643 -63.4968,136.3551 -97.1543,199.7285 -48.6712,46.9918 -104.7655,106.378 -164.7891,121.4942 l -248.5488,-1.2911 c -34.8088,-51.1848 -80.26308,-120.897 -134.19929,-143.6171 -27.00387,-11.3752 -56.17184,-10.8923 -86.97461,9.6543 -30.79691,20.5426 -63.25445,61.078 -97.13867,129.791 -6.70537,10.796 -16.04286,14.8402 -26.11719,17.4043 h -84.82422 c -0.12371,-20.9587 0.98214,-45.6124 0.26563,-68.0782 -0.72384,-22.6954 -3.28461,-43.1133 -11.03125,-55.205 -24.1634,-40.5379 -54.85073,-70.8953 -84.37891,-102.3379 h -0.004 -0.004 c -23.76148,-24.1103 -61.17724,-48.1499 -95.5293,-72.1836 l -0.0195,0.029 c -11.91295,-9.8714 -24.34256,-17.9718 -37.38867,-24.1992 h -0.006 -0.006 C 292.2699,744.8718 177.32725,702.3592 92.86328,638.6523 58.911803,609.1354 27.3928,574.2109 20.546875,529.3516 v -0.01 l -0.002,-0.01 c -2.871374,-15.6712 -3.184954,-23.4679 -2.941406,-29.0157 0.238217,-5.4263 0.988035,-8.8525 0.441406,-15.2754 C 92.12751,448.9735 184.19261,412.8378 268.30073,378.9214 352.5132,344.963 428.72826,313.2436 470.99409,285.9741 l 0.0176,-0.012 0.0156,-0.012 c 17.56227,-13.499 30.19299,-29.9882 45.23828,-44.998 15.0453,-15.0098 32.48826,-28.5541 59.73243,-36.2735 l 0.0176,-0.01 0.0176,-0.01 c 33.79713,-12.3498 78.19499,-1.8385 118.92969,0.7129 l 0.0937,0.01 z M 625.28711,314.3769 c -13.26071,0.5898 -28.2295,7.1487 -44.9668,25.2911 l -0.0351,0.037 -0.0254,0.045 c -15.39232,25.6703 -10.14733,54.2898 7.60156,84.8007 l 0.0391,0.068 0.0606,0.053 c 12.04399,10.7333 24.85694,17.9233 38.98047,18.7383 14.12352,0.8151 29.49592,-4.7612 46.60351,-19.3652 l 0.0898,-0.076 0.0449,-0.1074 c 5.26931,-12.4286 11.66403,-25.5984 12.85742,-40.8965 1.19339,-15.2982 -2.84779,-32.6981 -18.32422,-53.4961 l -0.0625,-0.084 -0.0898,-0.051 c -10.27509,-5.8844 -22.5964,-13.7173 -37.19532,-14.8613 -1.82486,-0.143 -3.68373,-0.18 -5.57812,-0.096 z m 0.041,0.9961 c 1.85433,-0.081 3.67306,-0.042 5.45899,0.098 14.24417,1.1163 26.39061,8.7782 36.67773,14.6739 15.31768,20.6151 19.24994,37.6957 18.07618,52.7422 -1.1716,15.0186 -7.45713,28.0382 -12.73047,40.4648 -16.94398,14.4396 -32.01306,19.8568 -45.81055,19.0606 -13.79741,-0.7963 -26.38365,-7.8209 -38.3125,-18.4375 -17.61244,-30.3075 -22.72199,-58.3982 -7.58984,-83.6719 16.59984,-17.9768 31.26152,-24.3635 44.23046,-24.9297 z M 439.1914,821.0605 c 32.33955,22.4074 66.25564,44.8056 88.26953,67.1426 29.54614,31.4614 60.16558,61.7615 84.25,102.1719 l 0.004,0.01 0.004,0.01 c 7.52296,11.7425 10.15103,32.0589 10.87305,54.6972 0.71463,22.4069 -0.38937,47.0473 -0.26563,68.045 H 501.61328 l 19.07813,-50.9864 9.0332,-37.582 0.004,-0.018 c 4.06682,-24.321 4.7038,-33.3408 4.47265,-38.5605 -0.23115,-5.2197 -1.31328,-6.4535 -0.6875,-15.3594 l 0.008,-0.1172 -0.043,-0.1074 C 505.89091,902.6967 474.98813,853.3117 439.19141,821.0605 Z"
     id="path121"
     inkscape:connector-curvature="0" />
  <path
     style="stroke-width:4"
     d="m 622.70504,1055.9832 -1.3836,-55.5787 -19.26276,-28.1831 C 568.83584,923.6135 518.62656,874.177 460.73464,833.0725 413.41392,799.4738 396.67158,790.5091 306.47237,750.4726 158.67409,684.8698 93.01034,645.5612 58.28475,601.8987 35.242304,572.9261 23.274862,544.5583 20.591384,512.5498 l -2.29172,-27.3356 75.510886,-32.5178 c 41.53099,-17.8848 98.91089,-41.8172 127.51089,-53.1829 196.83732,-78.224 236.12908,-98.3118 286.7612,-146.6053 35.59056,-33.9468 41.1266,-37.6894 67.67888,-45.7544 26.99136,-8.1984 31.8702,-8.4885 73.23884,-4.355 l 44.32108,4.4286 317.23076,-100.3696 c 275.1192,-87.0458 318.5426,-99.772 327.1123,-95.8674 5.4348,2.4763 10.9478,7.2812 12.2511,10.6775 1.6508,4.302 -30.8479,39.803799 -107.135,117.0346 -138.4634,140.1763 -176.973,187.6836 -217.2444,268.0032 -39.9708,79.7202 -59.76068,175.7031 -52.40692,254.1787 l 2.75108,29.3582 30.08964,21.5192 c 55.7722,39.8868 122.1159,113.1157 152.8766,168.7425 5.7612,10.4183 11.5366,18.9683 12.8342,19 1.2977,0.032 4.6684,-12.9924 7.4905,-28.9424 2.8221,-15.95 7.8331,-35.8184 11.1357,-44.152 11.1682,-28.1815 -0.3488,-71.3957 -43.05,-161.5316 l -23.0634,-48.6836 13.2927,-22.0664 c 20.6827,-34.3343 60.8776,-93.5017 86.3585,-127.121 58.8914,-77.7009 151.9089,-130.4219 329.4766,-186.7427 231.1379,-73.3123 361.6432,-100.7597 478.5134,-100.6394 103.4038,0.1065 286.2821,17.0223 294.4866,27.2393 6.8768,8.5636 6.2816,38.6164 -1.0454,52.7852 -3.3249,6.4298 -72.1749,70.5306 -153,142.4462 -80.825,71.9157 -152.3546,135.751 -158.9546,141.8563 l -12,11.1005 -24,-5.6829 c -31.3893,-7.4326 -74.4064,-7.3175 -104.1596,0.2788 -34.8884,8.9074 -123.22,53.5152 -159.9662,80.7836 -44.0232,32.6684 -76.3364,63.2803 -123.7464,117.2308 -47.4186,53.9605 -58.0211,71.3844 -87.5631,143.8989 -36.2369,88.9482 -34.4072,86.0041 -78.7939,126.7863 -45.9808,42.2468 -66.0808,57.0706 -96.7345,71.3418 -20.9344,9.7463 -21.6466,9.7933 -147.0363,9.7016 l -126,-0.092 -22,-32.5269 C 980.59524,991.7742 925.76008,947.5619 883.46792,947.5619 c -41.5082,0 -93.77368,44.1059 -128.33888,108.3029 -9.7942,18.1904 -22.61912,38.1638 -28.49992,44.3853 -10.52804,11.1381 -11.3978,11.3118 -56.6164,11.3118 H 624.0886 Z m 36.91712,-621.0709 c 26.13032,-14.6861 35.35764,-57.0045 19.54976,-89.6592 -6.52984,-13.4889 -12.18876,-18.5723 -28.47336,-25.5777 -22.3076,-9.5965 -32.92064,-8.7033 -54.47408,4.5845 -17.07988,10.5298 -24.9238,26.3672 -24.8152,50.1034 0.2492,54.5013 44.69404,85.0079 88.21288,60.549 z"
     id="path145"
     inkscape:connector-curvature="0" />
  <path
     id="path4658"
     style="fill:#000000;fill-opacity:1;stroke:#000000;stroke-width:4;stroke-linecap:butt;stroke-linejoin:round;stroke-miterlimit:4;stroke-dasharray:0, 44;stroke-dashoffset:0;stroke-opacity:1;paint-order:normal"
     d="m 619.74524,1059.1061 v -53.6649 L 598.88912,974.1061 C 558.6956,913.7176 466.60364,832.7369 394.89658,794.7259 c -14.76676,-7.8276 -64.26676,-31.3058 -110,-52.1737 C 142.94744,677.7813 79.390178,637.7038 49.02001,593.8148 28.649986,564.3773 19.904218,541.7527 17.074644,511.1748 L 14.816408,486.771 70.280822,463.1717 C 100.78625,450.1921 176.14524,419.0997 237.74524,394.0774 373.02545,339.1257 445.9946,303.6239 476.47012,277.9302 c 12.49868,-10.5375 34.55772,-27.6428 47.1128,-40.0802 32.91997,-32.6115 52.60709,-35.1298 119.05492,-31.5775 l 48.99948,2.6195 235.05396,-74.3098 C 1199.9725,48.187299 1300.1828,17.5413 1319.9383,14.3205 c 10.0468,-1.6379 15.6704,-0.5337 19.2503,3.7798 6.2627,7.5461 1.5242,13.1303 -97.3607,114.7386 -125.4513,128.9064 -166.4842,176.8874 -200.5531,234.5126 -54.4642,92.1222 -82.23992,199.2789 -75.21896,290.1892 l 2.68524,34.7697 24.50212,17.132 c 52.1469,36.4613 126.9998,117.6876 159.7419,173.3432 6.1819,10.5081 12.6189,17.5036 14.3043,15.5455 1.6855,-1.958 8.0187,-23.7446 14.074,-48.4146 10.0348,-40.884 10.5863,-46.9035 6.2294,-68 -5.6287,-27.2544 -20.839,-66.6675 -47.7269,-123.6698 l -19.4471,-41.2278 c 4.5924,-23.87367 11.5785,-40.56641 18.7941,-56.57046 54.6016,-109.5084 114.8109,-151.28953 177.5676,-188.42667 68.8353,-40.73424 171.8284,-96.56404 339.1657,-144.10454 190.1949,-54.03434 300.8946,-49.97573 441.799,-42.97253 115.6813,5.7496 210.7584,16.39 221,24.7329 2.8155,2.2934 5,12.997 5,24.4982 l -2.1213,19.3647 -36.8787,39.371 c -20.5553,21.9445 -94.8,88.2333 -163,149.25 -115.1658,103.0359 -124.8549,110.7779 -136,108.6702 -6.6,-1.2482 -31.0382,-3.3408 -54.3071,-4.6503 -51.2802,-2.8859 -69.9682,1.6626 -133.6929,32.5391 -81.1429,39.3163 -131.5667,77.7358 -196.9344,150.0505 -56.8099,62.8475 -74.8211,91.206 -108.7125,171.1671 -16.0131,37.7802 -33.8934,74.5732 -39.7339,81.7622 -27.9477,34.3998 -93.8424,89.2098 -126.4054,105.1413 l -22.8156,11.1627 -126.6991,1.6623 -126.6991,1.6624 -22,-33.0971 c -28.9974,-43.624 -79.783,-94.8335 -107.78532,-108.6848 -28.86048,-14.2758 -53.44908,-14.3392 -81.332,-0.21 -24.65468,12.4935 -59.31296,47.3452 -78.88264,79.323 -37.26616,60.8945 -41.43908,66.1316 -55.89384,70.1473 -7.7584,2.1554 -29.85616,3.929 -49.10616,3.9412 l -35,0.022 z m 35.27212,-622.4567 c 36.64556,-22.3421 35.8017,-88.67676 -0.46632,-112.0436 -17.46595,-11.253 -33.99723,-13.46834 -61.15176,-6.058 -42.53932,11.60877 -40.22476,76.5937 -5.6854,111.133 13.32736,13.3274 17.36468,15.0885 34.56076,15.0753 12.48172,-0.01 24.23456,-2.9195 32.74272,-8.1067 z"
     inkscape:connector-curvature="0"
     sodipodi:nodetypes="ccscssscssssscsscscscsccccsccssscscsscsssscccccscccccccsssccs" />
  <path
     style="fill:#7a7a7a;fill-opacity:1;stroke-width:4"
     d="m 500.80537,1104.5619 c 12.3717,-31.6083 25.10397,-69.8928 25.41254,-96.9277 0.11748,-10.2931 -0.31525,-20.5862 -1.13996,-30.8793 -2.93563,-14.8421 -7.14166,-29.3589 -13.34998,-43.0625 -10.96607,-24.2054 -27.21212,-53.3935 -36.76284,-66.0661 -9.62904,-12.7766 -11.33042,-20.95706 -9.89065,-20.44308 7.84705,2.80133 48.11556,37.34435 83.34727,74.15749 19.03644,19.89093 35.2609,43.25424 44.15585,55.81074 18.73366,26.44525 19.85924,26.54795 20.15997,39.87725 0.26944,11.9426 1.46339,27.2313 1.73489,52.5939 l 0.44895,41.9393 h -58.42796 c -54.02275,0 -58.22138,-0.5277 -55.68811,-7 z"
     id="path4660"
     inkscape:connector-curvature="0"
     sodipodi:nodetypes="cscssssssscscc" />
</svg>
